<?xml version="1.0" encoding="UTF-8" standalone="no"?>
<svg
   version="1.0"
   width="47.999996pt"
   height="45.771172pt"
   viewBox="0 0 47.999996 45.771172">
  <g
     transform="matrix(0.1,0,0,-0.1,-8.0000002,54.902573)"
     fill="#000000"
     stroke="none"
     id="g14">
    <path
       d="m 460,526 -75,-23 -3,-71 c -3,-68 -4,-71 -29,-74 -14,-2 -32,-12 -39,-23 -19,-28 2,-69 38,-73 41,-5 58,29 58,115 v 72 l 54,15 c 75,22 76,21 76,-25 0,-36 -3,-41 -19,-36 -11,3 -29,-2 -40,-10 -29,-20 -27,-59 4,-79 7.45018,-4.85881 12.55438,-4.32232 17.72087,-4.93575 C 513.50425,307.78391 522.0316,310.73721 535,314 c 24,16 25,20 25,126 0,82 -3,110 -12,109 -7,-1 -47,-11 -88,-23 z"
       id="path2" />
    <path
       d="m 85,510 c -14,-22 11,-30 96,-30 82,0 89,1 89,20 0,19 -7,20 -89,20 -50,0 -93,-4 -96,-10 z"
       id="path4" />
    <path
       d="m 84,409 c -13,-22 15,-30 97,-27 70,3 84,6 87,21 3,15 -6,17 -87,17 -54,0 -93,-4 -97,-11 z"
       id="path6" />
    <path
       d="m 82,303 c 3,-16 15,-18 93,-18 78,0 90,2 93,18 3,15 -7,17 -93,17 -86,0 -96,-2 -93,-17 z"
       id="path8" />
    <path
       d="m 93,223 c -7,-2 -13,-11 -13,-19 0,-12 40,-14 240,-14 198,0 240,2 240,14 0,8 -7,17 -16,20 -19,7 -433,7 -451,-1 z"
       id="path10" />
    <path
       d="m 87,124 c -4,-4 -7,-13 -7,-21 0,-11 43,-13 238,-11 203,3 237,5 237,18 0,13 -33,15 -231,18 -127,1 -233,-1 -237,-4 z"
       id="path12" />
  </g>
</svg>
