<?xml version="1.0" encoding="UTF-8" standalone="no"?>
<svg
   version="1.0"
   width="50.031269pt"
   height="55.772034pt"
   viewBox="0 0 50.031269 55.772034"
   id="svg8"
   xmlns="http://www.w3.org/2000/svg">
  <g
     transform="matrix(0.1,0,0,-0.1,-6.9987123,60.003739)"
     fill="#000000"
     stroke="none"
     id="g6">
    <path
       d="M 90,580 C 71,561 70,547 70,360 70,112 66,120 199,120 c 79,0 90,2 96,19 3,11 16.96215,18.47632 24.96215,21.47632 C 331.96215,164.47632 330,202 330,360 v 190 h 25 31.28189 l 1.01079,-107.24332 3.55815,-67.00823 3.88378,-22.79521 12.45826,-11.06248 L 425,340 l 16.44754,1.87559 15.66644,11.04819 4.45149,93.50903 c 4.13695,86.90159 5.60239,101.46056 17.59718,101.81422 C 504.72651,549.00076 500,532 500,450 c 0,-55 4,-100 9,-100 37,0 41,11 41,116 0,140 11,134 -242,134 -185,0 -199,-1 -218,-20 z m 70,-135 c 0,-63 4,-105 10,-105 6,0 10,-35 10,-85 v -85 h -30 -30 v 183 c 0,101 3,187 7,190 3,4 18.27379,3.85344 26.27379,3.85344 C 163.27379,546.85344 160,526 160,445 Z M 300,360 V 170 h -45 -45 v 85 c 0,69 3,85 15,85 12,0 15,18 15,105 v 105 h 30 30 z"
       id="path2" />
    <path
       d="m 470,306 -75,-22 -3,-72 c -3,-68 -4,-72 -27,-72 -26,0 -55,-24 -55,-45 0,-7 2.06494,-24.385112 12.06494,-37.385112 16,-20 33.99197,-15.770579 53.93506,-12.614888 29,10 29,12 32,97 l 3,87 53,15 c 74,22 76,21 76,-23 0,-33 -3,-38 -19,-34 -38,10 -68,-56 -39,-85 19,-19 66,-15 78,7 15,29 13,221 -2,220 -7,0 -47,-10 -88,-23 z"
       id="path4" />
  </g>
</svg>
